<svg id="Capa_1" enable-background="new 0 0 512 512" height="512" viewBox="0 0 512 512" width="512" xmlns="http://www.w3.org/2000/svg"><g><g><path d="m205.381 213.579 14.853-53.87 101.978-15.763 47.591-47.591c3.907-3.907 10.241-3.907 14.147 0l91.048 91.33c3.906 3.907 3.907 10.24 0 14.147l-55.914 55.914c-3.94 3.94-7.32 8.402-10.045 13.262l-22.347 39.854c-5.25 9.363-11.762 17.96-19.353 25.55l-65.74 65.731-142.391-142.39z" fill="#b46e59"/></g><g><path d="m474.999 187.686-10.193-10.224c.815 3.315-.062 6.96-2.652 9.55l-56.654 56.655c-3.974 3.974-7.383 8.476-10.132 13.378l-22.542 40.202c-5.296 9.445-11.865 18.117-19.522 25.773l-65.418 65.409 13.715 13.715 65.74-65.731c7.591-7.59 14.103-16.187 19.353-25.55l22.347-39.854c2.725-4.86 6.105-9.322 10.045-13.262l55.914-55.914c3.906-3.907 3.905-10.241-.001-14.147z" fill="#a55e4d"/></g><g><path d="m420.404 330.153-101.751-101.751c-2.512-2.512-4.329-5.633-5.273-9.057l-13.413-48.645-26.273-13.913c-9.612-5.09-20.588-7.011-31.358-5.489l-16.554 2.34c-16.049 2.269-32.231-3.138-43.692-14.599l-60.533-60.533c-3.907-3.907-10.24-3.907-14.147 0l-91.048 91.33c-3.906 3.907-3.907 10.24 0 14.147l84.754 84.755c3.94 3.94 7.32 8.402 10.045 13.262l22.347 39.854c5.25 9.363 11.762 17.96 19.353 25.55l65.74 65.731 106.793-106.793 59.559 59.559c5.857 5.857 15.352 5.857 21.209 0l14.242-14.242c5.939-5.939 5.939-15.567 0-21.506z" fill="#ffcbbe"/></g><g><path d="m362.501 393.433 14.386-14.386c5.858-5.858 5.858-15.355 0-21.213l-53.105-53.105-35.599 35.599 53.105 53.105c5.858 5.858 15.355 5.858 21.213 0z" fill="#ffcbbe"/></g><g><path d="m318.668 420.799 14.386-14.386c5.858-5.858 5.858-15.355 0-21.213l-44.872-44.872-35.599 35.599 44.872 44.871c5.858 5.859 15.356 5.859 21.213.001z" fill="#ffcbbe"/></g><g><path d="m275.576 448.905 14.386-14.386c5.858-5.858 5.858-15.355 0-21.213l-37.379-37.379-35.599 35.599 37.379 37.379c5.858 5.858 15.356 5.858 21.213 0z" fill="#ffcbbe"/></g><g><path d="m420.404 330.153-101.751-101.751c-2.512-2.512-4.329-5.633-5.273-9.057l-8.294-30.079-25.612-12.958 12.309 45.057c1.534 5.614 4.503 10.732 8.616 14.85l106.905 107.038c5.939 5.939 5.939 15.567 0 21.506l13.1-13.1c5.939-5.939 5.939-15.567 0-21.506z" fill="#ffa68d"/></g><g><path d="m376.889 357.836-51.673-51.673c-.792-.792-2.076-.792-2.867 0l-1.221 1.221c-5.73 5.73-5.73 15.02 0 20.75l42.584 42.584c5.939 5.939 5.939 15.567 0 21.506l13.178-13.178c5.856-5.858 5.856-15.353-.001-21.21z" fill="#ffa68d"/></g><g><path d="m333.057 385.202-43.44-43.44c-.792-.792-2.076-.792-2.867 0l-1.221 1.221c-5.73 5.73-5.73 15.02 0 20.75l35.364 35.364c4.316 4.316 5.479 10.576 3.522 15.956l8.642-8.642c5.856-5.857 5.856-15.352 0-21.209z" fill="#ffa68d"/></g><g><path d="m289.965 413.308-35.947-35.947c-.792-.792-2.076-.792-2.867 0l-1.971 1.971c-5.73 5.73-5.73 15.02 0 20.75l27.713 27.713c4.445 4.445 5.561 10.957 3.352 16.442l9.72-9.72c5.856-5.857 5.856-15.352 0-21.209z" fill="#ffa68d"/></g><g><path d="m207.883 328.589 14.386 14.386c5.858 5.858 5.858 15.355 0 21.213l-32.144 32.144c-7.029 7.029-18.426 7.029-25.456 0l-10.143-10.143c-7.029-7.029-7.029-18.426 0-25.456l32.144-32.144c5.858-5.858 15.355-5.858 21.213 0z" fill="#b46e59"/></g><g><path d="m164.791 300.482 14.386 14.386c5.858 5.858 5.858 15.355 0 21.213l-24.651 24.651c-7.029 7.029-18.426 7.029-25.456 0l-10.143-10.143c-7.029-7.029-7.029-18.426 0-25.456l24.651-24.651c5.858-5.858 15.355-5.858 21.213 0z" fill="#b46e59"/></g><g><path d="m222.271 364.185-32.149 32.149c-7.028 7.028-18.422 7.028-25.45 0l-.304-.304 45.739-45.739c4.316-4.316 5.479-10.576 3.522-15.956l8.642 8.642c5.857 5.856 5.857 15.352 0 21.208z" fill="#a55e4d"/></g><g><path d="m179.179 336.079-24.656 24.656c-7.028 7.028-18.422 7.028-25.45 0l-1.054-1.054 38.088-38.088c4.445-4.445 5.561-10.957 3.352-16.442l9.72 9.72c5.857 5.856 5.857 15.352 0 21.208z" fill="#a55e4d"/></g><g><path d="m117.585 276.49 14.386 14.386c5.858 5.858 5.858 15.355 0 21.213l-13.044 13.044c-7.029 7.029-18.426 7.029-25.456 0l-10.143-10.143c-7.029-7.029-7.029-18.426 0-25.456l13.044-13.044c5.858-5.858 15.356-5.858 21.213 0z" fill="#b46e59"/></g><g><path d="m131.974 312.087-13.049 13.049c-7.028 7.028-18.422 7.028-25.45 0l-1.054-1.054 26.481-26.481c4.445-4.445 5.561-10.957 3.352-16.442l9.72 9.72c5.856 5.856 5.856 15.351 0 21.208z" fill="#a55e4d"/></g><g><path d="m235.99 371.681 14.386 14.386c5.858 5.858 5.858 15.355 0 21.213l-24.651 24.651c-7.029 7.029-18.426 7.029-25.456 0l-10.143-10.143c-7.029-7.029-7.029-18.426 0-25.456l24.651-24.651c5.857-5.858 15.355-5.858 21.213 0z" fill="#b46e59"/></g><g><path d="m250.378 407.277-24.656 24.656c-7.028 7.028-18.422 7.028-25.45 0l-1.054-1.054 38.088-38.088c4.445-4.445 5.561-10.957 3.352-16.442l9.72 9.72c5.856 5.856 5.856 15.352 0 21.208z" fill="#a55e4d"/></g><g><path d="m299.967 170.7-26.273-13.913c-9.613-5.09-20.588-7.011-31.358-5.489l-16.554 2.34c-16.049 2.269-32.231-3.138-43.692-14.599l-60.533-60.533c-3.907-3.907-10.24-3.907-14.147 0l-12.622 12.662c3.928-3.523 9.964-3.408 13.74.368l60.533 60.533c11.461 11.461 27.643 16.869 43.692 14.6l16.554-2.34c10.77-1.522 21.746.399 31.359 5.489l26.272 13.912 17.202 2.104z" fill="#ffa68d"/></g><g><path d="m162.084 116.323-107.255 107.255c-2.343 2.343-6.142 2.343-8.485 0l-44.587-44.586c-2.343-2.343-2.343-6.142 0-8.485l107.255-107.256c2.343-2.343 6.142-2.343 8.485 0l44.586 44.586c2.344 2.344 2.344 6.143.001 8.486z" fill="#f4fbff"/></g><path d="m162.085 107.839-44.588-44.589c-2.343-2.343-6.141-2.343-8.483 0l-10.867 10.867 33.722 33.722c2.343 2.343 2.343 6.141 0 8.484l-96.391 96.391 10.866 10.866c2.343 2.343 6.141 2.343 8.483 0l107.257-107.257c2.343-2.343 2.343-6.142.001-8.484z" fill="#e4f6ff"/><g><circle cx="51.705" cy="173.63" fill="#335995" r="9.158"/></g><g><path d="m347.133 119.027-17.997 17.997c-4.127 4.127-9.831 6.275-15.655 5.896l-93.097-6.061c-8.672-.565-16.831 4.147-20.676 11.941l-9.179 18.604c-1.149 2.329-2.632 4.478-4.402 6.378l-27.408 29.426c-3.815 4.096-2.486 10.726 2.611 13.036l11.601 5.257c11.915 3.914 25.005 1.447 34.678-6.536l22.312-18.414c2.433-2.008 5.663-2.769 8.736-2.059l66.033 15.264c22.375 5.172 45.703-3.257 59.604-21.537l26.651-35.047z" fill="#b46e59"/></g><g><path d="m457.17 220.785-107.255-107.255c-2.343-2.343-2.343-6.142 0-8.485l44.586-44.586c2.343-2.343 6.142-2.343 8.485 0l107.255 107.255c2.343 2.343 2.343 6.142 0 8.485l-44.586 44.586c-2.343 2.343-6.142 2.343-8.485 0z" fill="#f4fbff"/></g><path d="m499.487 156.959-33.833 33.833c-2.343 2.343-6.141 2.343-8.483 0l-96.502-96.502-10.755 10.755c-2.343 2.343-2.343 6.141 0 8.483l107.257 107.257c2.343 2.343 6.141 2.343 8.483 0l44.588-44.588c2.343-2.343 2.343-6.141 0-8.483z" fill="#e4f6ff"/></g></svg>